<svg xmlns="http://www.w3.org/2000/svg" viewBox="0 0 500 100">
  <g transform="matrix(1, 0, 0, 1, 0.639775, -5.434433)">
    <path class="st2" d="M 79.38 24.187 L 16.314 24.187 C 13.806 24.187 11.867 22.134 11.867 19.739 C 11.867 17.344 13.92 15.292 16.314 15.292 L 79.38 15.292 C 81.889 15.292 83.828 17.344 83.828 19.739 C 83.828 22.134 81.775 24.187 79.38 24.187 Z" style="fill: rgb(0, 0, 0);"></path>
    <path class="st2" d="M 35.93 42.434 L 11.867 42.434 C 9.358 42.434 7.419 40.381 7.419 37.986 C 7.419 35.591 9.472 33.539 11.867 33.539 L 35.93 33.539 C 38.439 33.539 40.378 35.591 40.378 37.986 C 40.378 40.381 38.325 42.434 35.93 42.434 Z" style="fill: rgb(0, 0, 0);"></path>
    <path class="st1" d="M 16.885 61.022 L 8.787 61.022 C 6.279 61.022 4.34 58.969 4.34 56.575 C 4.34 54.18 6.393 52.127 8.787 52.127 L 16.885 52.127 C 19.394 52.127 21.333 54.18 21.333 56.575 C 21.333 58.969 19.28 61.022 16.885 61.022 Z" style="fill: rgb(0, 144, 255);"></path>
    <path class="st2" d="M 68.546 79.269 L 5.48 79.269 C 2.972 79.269 1.033 77.216 1.033 74.822 C 1.033 72.427 3.086 70.374 5.48 70.374 L 68.546 70.374 C 71.055 70.374 72.994 72.427 72.994 74.822 C 72.994 77.216 70.941 79.269 68.546 79.269 Z" style="fill: rgb(0, 0, 0);"></path>
    <path class="st1" d="M 74.933 42.434 L 50.527 42.434 C 48.018 42.434 46.079 40.381 46.079 37.986 C 46.079 35.591 48.132 33.539 50.527 33.539 L 74.933 33.539 C 77.441 33.539 79.38 35.591 79.38 37.986 C 79.38 40.381 77.327 42.434 74.933 42.434 Z" style="fill: rgb(0, 144, 255);"></path>
    <path class="st2" d="M 71.739 61.022 L 31.369 61.022 C 28.859 61.022 26.92 58.969 26.92 56.575 C 26.92 54.18 28.973 52.127 31.369 52.127 L 71.739 52.127 C 74.248 52.127 76.187 54.18 76.187 56.575 C 76.187 58.969 74.135 61.022 71.739 61.022 Z" style="fill: rgb(0, 0, 0);"></path>
    <g transform="matrix(1.140425, 0, 0, 1.140425, -53.251881, -38.536583)" style="">
      <path d="M141.3,43.8h11.9l-6.8,48.5h25.2l-1.6,11.2h-37.1l8.4-59.7Z"></path>
      <path d="M177.1,79.7c1.8-12.7,12.6-21.4,25.3-21.4s24.1,10.7,22.2,24.8c-1.7,12.7-12.5,21.4-25.2,21.4s-24.1-10.7-22.2-24.8ZM212.9,82.5c1.1-7.6-3.8-13.2-11.3-13.2s-11.9,4.8-12.9,11.2c-1,7.6,3.8,13.2,11.4,13.2s11.9-4.8,12.8-11.2Z"></path>
      <path d="M230.2,78.6c1.7-11.9,11.5-20.2,22.9-20.2s11.9,2.5,15.1,6.7l.8-5.6h11.2l-5.5,39.4c-2,14-10.5,22.2-24.1,22.2s-21.2-6.1-21.5-15.7h11.5c1,3.5,5,5.8,10.3,5.8s11.3-4.4,12.4-11.8l.3-2.2c-3.6,3.3-8.2,5.2-13.3,5.2-13.4,0-22.1-10.2-20.2-23.7ZM265.8,81.7c1.1-7.4-4-12.8-11.6-12.8s-11.6,4.3-12.5,10.1c-1,7.4,4.1,12.8,11.9,12.8s11.3-4.3,12.2-10.1Z" style=""></path>
      <path d="M283.5,90.3h11.3c-.5,3,2.3,5,6.9,5s6-1.6,6.2-3.8c1-7.5-23.6-3.1-21.3-20.4,1-8.7,8.7-12.7,17.7-12.7s17.8,5.7,16.9,13.6h-11.2c.4-2.6-2.1-4.4-6.2-4.4s-5.5,1.5-5.8,3.5c-1,7.3,23.8,3.1,21.5,20.3-1.2,8.5-8.6,13.2-18.4,13.2s-18.6-6-17.6-14.3Z"></path>
      <path d="M334.7,43.8h38l-1.6,11.2h-26l-1.9,13.4h22.6l-1.6,11.2h-22.6l-3.4,23.8h-11.9l8.4-59.7Z"></path>
      <path d="M370.3,79.7c1.8-12.7,12.6-21.4,25.3-21.4s24.1,10.7,22.2,24.8c-1.7,12.7-12.5,21.4-25.2,21.4s-24.1-10.7-22.2-24.8ZM406.1,82.5c1.1-7.6-3.8-13.2-11.3-13.2s-11.9,4.8-12.9,11.2c-1,7.6,3.8,13.2,11.4,13.2s11.9-4.8,12.8-11.2Z"></path>
      <path d="M428.9,59.4h11.2l-1,6.6c4.1-4.6,9.2-7.3,15-7.3h1.7l-1.6,11.6h-1.7c-8.3,0-13.8,4.2-15.4,10.8l-3.2,22.4h-11.2l6.2-44.1Z"></path>
      <path class="st0" d="M471.2,43.8h11.9l-8.4,59.7h-11.9l8.4-59.7Z" style="fill: rgb(0, 144, 255);"></path>
    </g>
  </g>
</svg>